# xmcd CD database file
#
# Track frame offsets:
#	150
#	11140
#	22995
#	35470
#	62051
#	70876
#	81257
#	92448
#	115662
#	126006
#	136371
#	150184
#
# Disc length: 2344 seconds
#
# Revision: 0
# Processed by: cddbd v1.5.2PL0 Copyright (c) Steve Scherf et al.
# Submitted via: CDex 1.51
#
DISCID=8d09260c
DTITLE=Eric Clapton - Eric Clapon and the Yardbirds
DYEAR=2006
DGENRE=Blues
TTITLE0=Boom Boom
TTITLE1=I'm A Man
TTITLE2=Good Morning Little Schoolgirl
TTITLE3=I Wish You Would
TTITLE4=Talkin' Bout You
TTITLE5=Putty (In Your Hands)
TTITLE6=For Your Love
TTITLE7=23 Hours Too Long
TTITLE8=A Certain Girl
TTITLE9=Let It Rock (Live)
TTITLE10=Pretty Girl
TTITLE11=Take It Easy Baby (Live)
EXTD=YEAR: 2006
EXTT0=
EXTT1=
EXTT2=
EXTT3=
EXTT4=
EXTT5=
EXTT6=
EXTT7=
EXTT8=
EXTT9=
EXTT10=
EXTT11=
PLAYORDER=
